<svg xmlns="http://www.w3.org/2000/svg" viewBox="0 0 1400 760" width="1400" height="760">
<defs>
<linearGradient id="tg" x1="0" y1="0" x2="1" y2="0"><stop offset="0" stop-color="#F43F5E"/><stop offset="0.25" stop-color="#F97316"/><stop offset="0.5" stop-color="#F59E0B"/><stop offset="0.75" stop-color="#10B981"/><stop offset="1" stop-color="#0EA5E9"/><stop offset="1" stop-color="#8B5CF6"/></linearGradient>
<linearGradient id="fill" x1="0" y1="0" x2="0" y2="1"><stop offset="0" stop-color="#38BDF8" stop-opacity="0.2"/><stop offset="1" stop-color="#38BDF8" stop-opacity="0"/></linearGradient>
</defs>
<rect width="1400" height="760" fill="#020617"/>
<text x="130" y="62" font-family="Inter Display, Inter, sans-serif" font-size="42" font-weight="900" letter-spacing="-1" fill="#F1F5F9">QUỸ ĐẠO 36 THÁNG</text>
<line x1="130" y1="650" x2="1310" y2="650" stroke="#1E293B" stroke-width="1.5"/><text x="108" y="658" text-anchor="end" font-family="Inter, sans-serif" font-size="20" fill="#64748B">0.0</text><line x1="130" y1="530" x2="1310" y2="530" stroke="#1E293B" stroke-width="1.5"/><text x="108" y="538" text-anchor="end" font-family="Inter, sans-serif" font-size="20" fill="#64748B">2.0</text><line x1="130" y1="410" x2="1310" y2="410" stroke="#1E293B" stroke-width="1.5"/><text x="108" y="418" text-anchor="end" font-family="Inter, sans-serif" font-size="20" fill="#64748B">4.0</text><line x1="130" y1="290" x2="1310" y2="290" stroke="#1E293B" stroke-width="1.5"/><text x="108" y="298" text-anchor="end" font-family="Inter, sans-serif" font-size="20" fill="#64748B">6.0</text><line x1="130" y1="170" x2="1310" y2="170" stroke="#1E293B" stroke-width="1.5"/><text x="108" y="178" text-anchor="end" font-family="Inter, sans-serif" font-size="20" fill="#64748B">8.0</text>
<line x1="523.3333333333333" y1="110" x2="523.3333333333333" y2="650" stroke="#1E293B" stroke-width="1.5" stroke-dasharray="6 8"/><text x="523.3333333333333" y="690" text-anchor="middle" font-family="Inter, sans-serif" font-size="21" fill="#64748B">Tháng 12</text><line x1="916.6666666666666" y1="110" x2="916.6666666666666" y2="650" stroke="#1E293B" stroke-width="1.5" stroke-dasharray="6 8"/><text x="916.6666666666666" y="690" text-anchor="middle" font-family="Inter, sans-serif" font-size="21" fill="#64748B">Tháng 24</text><line x1="1310" y1="110" x2="1310" y2="650" stroke="#1E293B" stroke-width="1.5" stroke-dasharray="6 8"/><text x="1310" y="690" text-anchor="middle" font-family="Inter, sans-serif" font-size="21" fill="#64748B">Tháng 36</text>
<polygon points="130,650 130.0,650.0 228.3,470.0 326.7,410.0 425.0,380.0 523.3,350.0 621.7,320.0 720.0,290.0 818.3,260.0 916.7,260.0 1015.0,230.0 1113.3,200.0 1211.7,200.0 1310.0,170.0 1310,650" fill="url(#fill)"/>
<polyline points="130.0,650.0 228.3,470.0 326.7,410.0 425.0,380.0 523.3,350.0 621.7,320.0 720.0,290.0 818.3,260.0 916.7,260.0 1015.0,230.0 1113.3,200.0 1211.7,200.0 1310.0,170.0" fill="none" stroke="url(#tg)" stroke-width="6" stroke-linejoin="round" stroke-linecap="round"/>
<circle cx="130" cy="650" r="8" fill="#020617" stroke="#38BDF8" stroke-width="4"/><circle cx="228.33333333333331" cy="470" r="8" fill="#020617" stroke="#38BDF8" stroke-width="4"/><circle cx="326.66666666666663" cy="410" r="8" fill="#020617" stroke="#38BDF8" stroke-width="4"/><circle cx="425" cy="380" r="8" fill="#020617" stroke="#38BDF8" stroke-width="4"/><circle cx="523.3333333333333" cy="350" r="8" fill="#020617" stroke="#38BDF8" stroke-width="4"/><circle cx="621.6666666666667" cy="320" r="8" fill="#020617" stroke="#38BDF8" stroke-width="4"/><circle cx="720" cy="290" r="8" fill="#020617" stroke="#38BDF8" stroke-width="4"/><circle cx="818.3333333333334" cy="260" r="8" fill="#020617" stroke="#38BDF8" stroke-width="4"/><circle cx="916.6666666666666" cy="260" r="8" fill="#020617" stroke="#38BDF8" stroke-width="4"/><circle cx="1015" cy="230" r="8" fill="#020617" stroke="#38BDF8" stroke-width="4"/><circle cx="1113.3333333333335" cy="200" r="8" fill="#020617" stroke="#38BDF8" stroke-width="4"/><circle cx="1211.6666666666665" cy="200" r="8" fill="#020617" stroke="#38BDF8" stroke-width="4"/><circle cx="1310" cy="170" r="8" fill="#020617" stroke="#38BDF8" stroke-width="4"/>
<text x="523.3333333333333" y="322" text-anchor="middle" font-family="Inter Display, Inter, sans-serif" font-size="30" font-weight="800" fill="#F1F5F9">5.0</text><text x="523.3333333333333" y="290" text-anchor="middle" font-family="Inter, sans-serif" font-size="19" fill="#64748B">B1</text><text x="916.6666666666666" y="232" text-anchor="middle" font-family="Inter Display, Inter, sans-serif" font-size="30" font-weight="800" fill="#F1F5F9">6.5</text><text x="916.6666666666666" y="200" text-anchor="middle" font-family="Inter, sans-serif" font-size="19" fill="#64748B">B2+</text><text x="1310" y="142" text-anchor="middle" font-family="Inter Display, Inter, sans-serif" font-size="30" font-weight="800" fill="#F1F5F9">8.0</text><text x="1310" y="110" text-anchor="middle" font-family="Inter, sans-serif" font-size="19" fill="#64748B">C1+</text>
</svg>