<svg xmlns="http://www.w3.org/2000/svg" viewBox="0 0 512 512" width="512" height="512">
<defs><linearGradient id="tier1" x1="0" y1="1" x2="0" y2="0"><stop offset="0" stop-color="#F43F5E"/><stop offset="1" stop-color="#F97316"/></linearGradient><linearGradient id="tier2" x1="0" y1="1" x2="0" y2="0"><stop offset="0" stop-color="#F97316"/><stop offset="1" stop-color="#F59E0B"/></linearGradient><linearGradient id="tier3" x1="0" y1="1" x2="0" y2="0"><stop offset="0" stop-color="#F59E0B"/><stop offset="1" stop-color="#10B981"/></linearGradient><linearGradient id="tier4" x1="0" y1="1" x2="0" y2="0"><stop offset="0" stop-color="#10B981"/><stop offset="1" stop-color="#0EA5E9"/></linearGradient><linearGradient id="tier5" x1="0" y1="1" x2="0" y2="0"><stop offset="0" stop-color="#0EA5E9"/><stop offset="1" stop-color="#8B5CF6"/></linearGradient><linearGradient id="ringGrad" x1="0" y1="1" x2="1" y2="0"><stop offset="0" stop-color="#F43F5E"/><stop offset="0.5" stop-color="#10B981"/><stop offset="1" stop-color="#8B5CF6"/></linearGradient></defs>
<rect width="512" height="512" rx="112" fill="#FAFAF9"/>
<path d="M 218.66 44.23 A 215.04 215.04 0 1 1 91.27 117.77" fill="none" stroke="url(#ringGrad)" stroke-width="38.40" stroke-linecap="round"/><rect x="124.93" y="279.04" width="36.86" height="56.32" rx="18.43" fill="url(#tier1)"/><rect x="181.25" y="250.88" width="36.86" height="84.48" rx="18.43" fill="url(#tier2)"/><rect x="237.57" y="222.72" width="36.86" height="112.64" rx="18.43" fill="url(#tier3)"/><rect x="293.89" y="194.56" width="36.86" height="140.80" rx="18.43" fill="url(#tier4)"/><rect x="350.21" y="166.40" width="36.86" height="168.96" rx="18.43" fill="url(#tier5)"/>
</svg>